<?xml version="1.0" ?><svg id="social_x5F_emoji_x5F_smile" style="enable-background:new 0 0 32 32;" version="1.1" viewBox="0 0 32 32" xml:space="preserve" xmlns="http://www.w3.org/2000/svg" xmlns:xlink="http://www.w3.org/1999/xlink"><g><g><path d="M16,32C7.178,32,0,24.822,0,16S7.178,0,16,0s16,7.178,16,16S24.822,32,16,32z M16,2    C8.28,2,2,8.28,2,16s6.28,14,14,14s14-6.28,14-14S23.72,2,16,2z" style="fill:#FD5C3F;"/></g><g><path d="M24,14c-0.552,0-1-0.447-1-1c0-1.103-0.897-2-2-2s-2,0.897-2,2c0,0.553-0.448,1-1,1s-1-0.447-1-1    c0-2.206,1.794-4,4-4s4,1.794,4,4C25,13.553,24.552,14,24,14z" style="fill:#FD5C3F;"/></g><g><path d="M14,14c-0.552,0-1-0.447-1-1c0-1.103-0.897-2-2-2s-2,0.897-2,2c0,0.553-0.448,1-1,1s-1-0.447-1-1    c0-2.206,1.794-4,4-4s4,1.794,4,4C15,13.553,14.552,14,14,14z" style="fill:#FD5C3F;"/></g><g><g><path d="M16,24c-2.543,0-5.074-0.757-7.521-2.251c-0.471-0.288-0.62-0.903-0.333-1.374     c0.288-0.473,0.904-0.621,1.375-0.333c4.258,2.598,8.7,2.598,12.958,0c0.47-0.288,1.087-0.14,1.375,0.333     c0.288,0.471,0.139,1.086-0.333,1.374C21.074,23.243,18.543,24,16,24z" style="fill:#FD5C3F;"/></g></g><g><path d="M25.001,23c-0.323,0-0.64-0.156-0.833-0.445l-2-3c-0.306-0.46-0.182-1.08,0.277-1.387    c0.459-0.306,1.08-0.183,1.387,0.277l2,3c0.306,0.46,0.182,1.08-0.277,1.387C25.384,22.945,25.191,23,25.001,23z" style="fill:#FD5C3F;"/></g><g><path d="M6.999,23c-0.19,0-0.383-0.055-0.554-0.168c-0.459-0.307-0.583-0.927-0.277-1.387l2-3    c0.307-0.46,0.927-0.583,1.387-0.277c0.459,0.307,0.583,0.927,0.277,1.387l-2,3C7.639,22.844,7.322,23,6.999,23z" style="fill:#FD5C3F;"/></g></g></svg>