<?xml version="1.0" ?><svg id="social_x5F_emoji_x5F_very_x5F_sad" style="enable-background:new 0 0 32 32;" version="1.1" viewBox="0 0 32 32" xml:space="preserve" xmlns="http://www.w3.org/2000/svg" xmlns:xlink="http://www.w3.org/1999/xlink"><g><g><path d="M20,22.658c-0.256,0-0.512-0.098-0.707-0.293c-1.816-1.816-4.77-1.816-6.586,0    c-0.391,0.391-1.023,0.391-1.414,0s-0.391-1.023,0-1.414C12.551,19.693,14.223,19,16,19s3.449,0.693,4.707,1.951    c0.391,0.391,0.391,1.023,0,1.414C20.512,22.561,20.256,22.658,20,22.658z" style="fill:#FD5C3F;"/></g><g><path d="M16,32C7.178,32,0,24.822,0,16S7.178,0,16,0s16,7.178,16,16S24.822,32,16,32z M16,2    C8.28,2,2,8.28,2,16s6.28,14,14,14s14-6.28,14-14S23.72,2,16,2z" style="fill:#FD5C3F;"/></g><g><path d="M24,15c-0.104,0-0.211-0.017-0.316-0.052l-3-1c-0.523-0.174-0.807-0.74-0.632-1.265    c0.175-0.523,0.737-0.807,1.265-0.632l3,1c0.523,0.174,0.807,0.74,0.632,1.265C24.809,14.735,24.419,15,24,15z" style="fill:#FD5C3F;"/></g><g><path d="M8,15c-0.419,0-0.809-0.265-0.948-0.684c-0.175-0.524,0.108-1.091,0.632-1.265l3-1    c0.527-0.175,1.09,0.108,1.265,0.632c0.175,0.524-0.108,1.091-0.632,1.265l-3,1C8.211,14.983,8.104,15,8,15z" style="fill:#FD5C3F;"/></g></g></svg>